<?xml version="1.0" encoding="utf-8"?>
<!-- Generator: Adobe Illustrator 25.2.0, SVG Export Plug-In . SVG Version: 6.00 Build 0)  -->
<svg version="1.1" id="Layer_1" xmlns="http://www.w3.org/2000/svg" xmlns:xlink="http://www.w3.org/1999/xlink" x="0px" y="0px"
	 viewBox="0 0 1318.8 386.7" style="enable-background:new 0 0 1318.8 386.7;" xml:space="preserve">
<style type="text/css">
	.st0{fill:url(#SVGID_1_);}
	.st1{fill:url(#SVGID_2_);}
	.st2{fill:url(#SVGID_3_);}
	.st3{fill:url(#SVGID_4_);}
	.st4{fill:url(#SVGID_5_);}
	.st5{fill:url(#SVGID_6_);}
	.st6{fill:url(#SVGID_7_);}
	.st7{fill:#FFFFFF;}
	.st8{fill:#232323;}
</style>
<g>
	<g id="Layer_1_1_">
		
			<radialGradient id="SVGID_1_" cx="385.63" cy="-369.5209" r="399.84" gradientTransform="matrix(1 0 0 -1 0 -300)" gradientUnits="userSpaceOnUse">
			<stop  offset="4.000000e-02" style="stop-color:#B83C9F"/>
			<stop  offset="0.33" style="stop-color:#D51C68"/>
			<stop  offset="0.35" style="stop-color:#D71A65"/>
			<stop  offset="0.52" style="stop-color:#E55143"/>
			<stop  offset="0.65" style="stop-color:#F17E27"/>
			<stop  offset="1" style="stop-color:#FCED2F"/>
		</radialGradient>
		<path class="st0" d="M178.8,46.7c-89.9,0-163.1,73.2-163.1,163.1s73.2,163.1,163.1,163.1s163.1-73.2,163.1-163.1
			S268.7,46.7,178.8,46.7z M178.8,336.2c-69.8,0-126.4-56.6-126.4-126.4S109,83.4,178.8,83.4S305.2,140,305.2,209.8
			S248.6,336.2,178.8,336.2L178.8,336.2z"/>
		
			<radialGradient id="SVGID_2_" cx="383.89" cy="-319.121" r="80.62" gradientTransform="matrix(1 0 0 -1 0 -300)" gradientUnits="userSpaceOnUse">
			<stop  offset="4.000000e-02" style="stop-color:#B83C9F"/>
			<stop  offset="0.33" style="stop-color:#D51C68"/>
			<stop  offset="0.35" style="stop-color:#D71A65"/>
			<stop  offset="0.52" style="stop-color:#E55143"/>
			<stop  offset="0.65" style="stop-color:#F17E27"/>
			<stop  offset="1" style="stop-color:#FCED2F"/>
		</radialGradient>
		<circle class="st1" cx="345.5" cy="47.1" r="31.2"/>
		
			<radialGradient id="SVGID_3_" cx="569.1466" cy="865.7493" r="52.75" gradientTransform="matrix(0.7071 0.7071 0.7071 -0.7071 -760.8062 325.2971)" gradientUnits="userSpaceOnUse">
			<stop  offset="4.000000e-02" style="stop-color:#B83C9F"/>
			<stop  offset="0.33" style="stop-color:#D51C68"/>
			<stop  offset="0.35" style="stop-color:#D71A65"/>
			<stop  offset="0.52" style="stop-color:#E55143"/>
			<stop  offset="0.65" style="stop-color:#F17E27"/>
			<stop  offset="1" style="stop-color:#FCED2F"/>
		</radialGradient>
		<circle class="st2" cx="236.9" cy="97.9" r="28.6"/>
		
			<radialGradient id="SVGID_4_" cx="-1435.6504" cy="2343.9658" r="42.41" gradientTransform="matrix(-0.7071 0.7071 0.7071 0.7071 -2376.2961 -524.4152)" gradientUnits="userSpaceOnUse">
			<stop  offset="4.000000e-02" style="stop-color:#B83C9F"/>
			<stop  offset="0.33" style="stop-color:#D51C68"/>
			<stop  offset="0.35" style="stop-color:#D71A65"/>
			<stop  offset="0.52" style="stop-color:#E55143"/>
			<stop  offset="0.65" style="stop-color:#F17E27"/>
			<stop  offset="1" style="stop-color:#FCED2F"/>
		</radialGradient>
		<circle class="st3" cx="310.5" cy="104.2" r="23"/>
		
			<radialGradient id="SVGID_5_" cx="365.4799" cy="1416.1787" r="19.39" gradientTransform="matrix(0.4434 0.8963 0.8963 -0.4434 -1131.9177 365.2505)" gradientUnits="userSpaceOnUse">
			<stop  offset="4.000000e-02" style="stop-color:#B83C9F"/>
			<stop  offset="0.33" style="stop-color:#D51C68"/>
			<stop  offset="0.35" style="stop-color:#D71A65"/>
			<stop  offset="0.52" style="stop-color:#E55143"/>
			<stop  offset="0.65" style="stop-color:#F17E27"/>
			<stop  offset="1" style="stop-color:#FCED2F"/>
		</radialGradient>
		<circle class="st4" cx="295.8" cy="56.9" r="10.5"/>
		
			<radialGradient id="SVGID_6_" cx="401.9799" cy="1510.8987" r="9.12" gradientTransform="matrix(0.4434 0.8963 0.8963 -0.4434 -1131.9177 365.2505)" gradientUnits="userSpaceOnUse">
			<stop  offset="4.000000e-02" style="stop-color:#B83C9F"/>
			<stop  offset="0.33" style="stop-color:#D51C68"/>
			<stop  offset="0.35" style="stop-color:#D71A65"/>
			<stop  offset="0.52" style="stop-color:#E55143"/>
			<stop  offset="0.65" style="stop-color:#F17E27"/>
			<stop  offset="1" style="stop-color:#FCED2F"/>
		</radialGradient>
		<circle class="st5" cx="398.9" cy="51.9" r="4.9"/>
		
			<radialGradient id="SVGID_7_" cx="453.1099" cy="1368.0288" r="28.52" gradientTransform="matrix(0.4434 0.8963 0.8963 -0.4434 -1131.9177 365.2505)" gradientUnits="userSpaceOnUse">
			<stop  offset="4.000000e-02" style="stop-color:#B83C9F"/>
			<stop  offset="0.33" style="stop-color:#D51C68"/>
			<stop  offset="0.35" style="stop-color:#D71A65"/>
			<stop  offset="0.52" style="stop-color:#E55143"/>
			<stop  offset="0.65" style="stop-color:#F17E27"/>
			<stop  offset="1" style="stop-color:#FCED2F"/>
		</radialGradient>
		<circle class="st6" cx="289.7" cy="152.9" r="15.5"/>
		
			<image style="overflow:visible;opacity:0.4;enable-background:new    ;" width="284" height="285" xlink:href="FBD4D6BBAE1A0C06.png"  transform="matrix(0.9965 0 0 0.9965 41.2691 71.7118)">
		</image>
		<circle class="st7" cx="178.8" cy="209.8" r="126.4"/>
	</g>
</g>
<g>
	<path class="st8" d="M448.8,56.9h52.1v45.9h-52.1V56.9z M448.8,130.8h52.1v202.2h-52.1V130.8z"/>
	<path class="st8" d="M739.1,214.1v119.1H687V222.6c0-29.6-15.9-49-43.2-49c-26.9,0-43.2,19.5-43.2,49v110.5h-52.1V130.8h52.1v27.7
		c11.3-17.8,31.5-31.5,61.9-31.5C704,127,739.1,152.6,739.1,214.1z"/>
	<path class="st8" d="M766.2,280.2l41.6-11.3c3.9,13.2,13.6,26.9,33.5,26.9c13.2,0,26-6.6,26-21c0-9.8-6.2-16.8-22.2-22.6l-25-9.3
		c-33.5-12.1-47.6-33.5-47.6-58c0-36.2,31.9-58,70-58c36.5,0,63.5,20.6,70,51.7L872,188.9c-5.5-16.4-15.9-21.4-26.9-21.4
		c-13.6,0-21.8,7.8-21.8,17.5c0,8.6,5,15.9,21,21.4L867,215c25,9,52.1,23.7,52.1,59.5c0,40.5-34.7,62.2-77.1,62.2
		C802,337,772.5,317.5,766.2,280.2z"/>
	<path class="st8" d="M1064.3,286v40.2c-7.8,7-22.6,9.3-35.5,9.3c-34.2,0-59.2-16.7-59.2-58.4V172.4h-28.8v-41.6h28.8V79.1h52.5
		v51.7h41.6v41.6h-41.5v96.1c0,10.5,5.9,20.6,23,20.6C1051.7,289,1058.1,288,1064.3,286z"/>
	<path class="st8" d="M1086.2,232c0-70,50.2-105,97.3-105c36.2,0,59.5,19.8,64.6,31.1h1.2v-27.2h52.1v202.2h-52.1V306h-1.2
		c-5,11.3-28.3,31.1-64.6,31.1C1136.4,337,1086.2,302,1086.2,232z M1250.3,232c0-38.2-27.2-58.4-56.4-58.4
		c-29.2,0-56.4,20.6-56.4,58.4s27.2,58.4,56.4,58.4C1223.1,290.4,1250.3,270.1,1250.3,232L1250.3,232z"/>
</g>
</svg>
