<svg xmlns="http://www.w3.org/2000/svg" xmlns:xlink="http://www.w3.org/1999/xlink" viewBox="0 0 269.1 95.6"><defs><style>.a{fill:url(#a);}.b{fill:url(#b);}.c{fill:#232323;}</style><radialGradient id="a" cx="97.14" cy="15.94" r="105" gradientUnits="userSpaceOnUse"><stop offset="0.04" stop-color="#b83c9f"/><stop offset="0.33" stop-color="#d51c68"/><stop offset="0.35" stop-color="#d71a65"/><stop offset="0.52" stop-color="#e55143"/><stop offset="0.65" stop-color="#f17e27"/><stop offset="1" stop-color="#fced2f"/></radialGradient><radialGradient id="b" cx="96.95" cy="1.06" r="26.54" xlink:href="#a"/></defs><path class="a" d="M42.83,9.94A42.83,42.83,0,1,0,85.66,52.77,42.88,42.88,0,0,0,42.83,9.94Zm0,69A26.17,26.17,0,1,1,69,52.77,26.17,26.17,0,0,1,42.83,78.94Z"/><circle class="b" cx="84.31" cy="10.26" r="10.26"/><path class="c" d="M127.23,15.93v63h-9.51v-63Z"/><path class="c" d="M137.27,39.19h9.23v3.68a15,15,0,0,1,10.85-4.78q6.94,0,10.82,4.37,3.35,3.72,3.34,12.12V78.94h-9.22V56.74q0-5.87-1.63-8.12t-5.8-2.28c-3,0-5.21,1-6.49,3s-1.87,5.45-1.87,10.4V78.94h-9.23Z"/><path class="c" d="M202.86,46l-7.59,4q-1.8-3.67-4.45-3.67a3.09,3.09,0,0,0-2.16.83,2.82,2.82,0,0,0-.9,2.15q0,2.28,5.3,4.53,7.31,3.13,9.84,5.79a9.91,9.91,0,0,1,2.53,7.14,12.49,12.49,0,0,1-4.24,9.63,14.46,14.46,0,0,1-10,3.68q-10,0-14.16-9.76l7.83-3.63a16.78,16.78,0,0,0,2.49,3.63,5.66,5.66,0,0,0,4,1.55q4.65,0,4.65-4.24c0-1.63-1.19-3.16-3.59-4.57-.92-.46-1.85-.91-2.77-1.35s-1.87-.88-2.82-1.34a17.47,17.47,0,0,1-5.63-3.92,9.65,9.65,0,0,1-2.08-6.41,11.34,11.34,0,0,1,3.55-8.57,12.44,12.44,0,0,1,8.81-3.39Q199.15,38.09,202.86,46Z"/><path class="c" d="M219.8,47.77V78.94h-9.18V47.77H206.7V39.19h3.92V24.63h9.18V39.19h7.14v8.58Z"/><path class="c" d="M259.88,39.19h9.22V78.94h-9.22V74.78q-5.67,5.31-12.21,5.31a17.61,17.61,0,0,1-13.63-6A22.19,22.19,0,0,1,228.7,59,21.49,21.49,0,0,1,234,44.05a17.26,17.26,0,0,1,13.39-6q6.93,0,12.45,5.72ZM238.08,59a13.78,13.78,0,0,0,3.07,9.3,10,10,0,0,0,7.91,3.63,10.56,10.56,0,0,0,8.25-3.51,13.6,13.6,0,0,0,3.14-9.22,13.6,13.6,0,0,0-3.14-9.22,10.4,10.4,0,0,0-8.17-3.55A10.15,10.15,0,0,0,241.23,50,13.21,13.21,0,0,0,238.08,59Z"/></svg>