<?xml version="1.0" encoding="utf-8"?>
<!-- Generator: Adobe Illustrator 25.2.0, SVG Export Plug-In . SVG Version: 6.00 Build 0)  -->
<svg version="1.1" id="Vectorportal.com" xmlns="http://www.w3.org/2000/svg" xmlns:xlink="http://www.w3.org/1999/xlink" x="0px"
	 y="0px" viewBox="0 0 449.8 576.6" style="enable-background:new 0 0 449.8 576.6;" xml:space="preserve">
<style type="text/css">
	.st0{fill:#13110C;}
</style>
<g>
	<path class="st0" d="M151.4,307.4C151.4,307.4,151.4,307.4,151.4,307.4L151.4,307.4L151.4,307.4z M419.2,230.2
		c-14.3,12.8-20.3,19.5-17.5,23.2c2.7,3.7,2.6,22.3-1.5,21.2c-1.6-8.9-2.9-16-9.1-15.3c1.8,6.9,4.9,20.7,3.2,31.2
		c-0.9,5.3-2,10.1-3.1,14.7c-1.7,7.2-3.1,13.4-3.3,19.9c-0.3,13.4-1.6,22.3-4.2,27.2c-0.6,1.1-0.7,5.5-0.8,8.7
		c-0.3,8.8-0.6,18.8-6.6,22.6c-5.3,3.4-11.4,3.7-15,3.5c-1-0.1-1.7-0.1-2.3-0.2c-4,21.5-11,54.7-30.4,96.9
		c-18.8,40.8-42.9,62.4-51.9,70.5c-1.5,1.3-2.7,2.4-3.3,3c-4.5,4.8-27.3,20.4-50.2,19.2c-1.9-0.1-3.9-0.3-5.8-0.7
		c-26.8-5.2-44.9-24.8-53.3-36.1c-2.4-3.3-5.2-6.6-8.2-10.2c-9.7-11.8-21.8-26.5-30.6-48.5c-10.2-25.4-20.6-72.4-24.2-92.3
		c-1.6,0.2-3.6,0.4-5.9,0.3c-2.8-0.2-5.8-0.8-8.8-2.2c-6.4-3.1-7.8-13.1-9-21.8c-0.4-3.2-1.1-7.6-1.7-8.6c-3-4.7-5.3-13.4-7.1-26.6
		c-0.8-6.4-3-12.4-5.4-19.4c-1.6-4.5-3.2-9.1-4.6-14.3c-3.4-12.1-0.6-29.6,0.3-34.4c-0.9-0.4-1.8-0.7-2.6-0.9
		C45.3,258,16,248.9,16.4,225.4c0.4-23.4,0.6-26.5-6.8-28.7c-7.4-2.2-8.7,4.8-8.7,4.8s-3-17.9,1.5-27.4c4.5-9.5,15.7-11.5,15.7-19.9
		c0-8.4-9-59.8,26.6-71.5c-7,10.2-8.7,29.2,2.8,28c11.6-1.1,11.6-40.7,27.1-48c22.5-10.7,4.4-19.9,3.1-20.4c10.6-3.8,16-1.1,26-1.9
		c3.1-0.2,21.9-7.2,22.1-18.2c0.2-11.1,31-20.8,37-15.6c-6.8,2.5-20.7,5.9-11,14c9.7,8.1,77.4-30.6,93.1-18.2
		c-13.6,5.7-16.1,11.5-6.3,17.8c9.8,6.3,48.8,14.3,45.5,2.1C280.9,10.3,266.7,3,266.7,3s0.7-4.6,37.1,17c36.4,21.5,95,38.6,87,77.1
		c22.7,5.4,23.8-2.8,26-1.5c2.3,1.3,30.8,61.3,32.9,76.2C451.8,186.6,433.5,217.4,419.2,230.2 M64.4,275.1
		c2.9,2.7,12.3,11.5,16.1,16.6c2.5,3.3,6.8,11.9,10.3,19.1c0-7.6,0-16.2,0-23.4c-9.5-7.8-17.6-16.8-25.3-22.2
		C65.1,267.7,64.7,271.2,64.4,275.1 M72.7,315.9c1.4-9,3.7-19.7,4.4-22.8c-3.1-3.9-9.3-9.9-13-13.5c-0.1,5,0.2,10.1,1.3,14.4
		c1.4,5,3,9.5,4.5,13.9C70.9,310.6,71.9,313.3,72.7,315.9 M81.8,352.3c1.7-3,3.8-6,5.6-8.3c-2.4-3-4.4-5.5-5.4-6.9
		c-2.6-3.8,4.3-14.1,7.9-19.9c-2.8-5.9-7-14.7-10.1-20.1c-1.5,7-4.3,20.7-4.7,27.5c0,0.5-0.1,0.9-0.1,0.9h0c0,0,0.1-0.4,0.1-0.9
		c0.2,1.2,0.5,2.9,0.7,4.1C77.8,344.2,80.4,350.1,81.8,352.3 M89,379.8c0.5-1.1,1.2-2.4,2.2-3.9c0.6-0.8,1.3-1.9,2.1-2.7
		c0.5-0.5,0.4-1.9,0.3-3.1c-0.3-2.5-0.9-5.2-1.9-7.6c-0.5-1.2-1.1-2.5-1.8-3.5c-0.3-0.5-0.8-1-1.2-1.6c-0.5-0.6-0.9-1.3-1.1-2
		c-0.4-1.5-0.1-3,0.4-4.1c0.5-1.2,1.2-2.1,1.9-3c0.1-0.1,0.2-0.3,0.4-0.4c-0.2-0.3-0.5-0.6-0.7-1c-2.3,3.1-4.9,6.9-6.3,10
		c0.4,2,0.8,4.3,1.2,7C85.3,369.1,86.5,377.4,89,379.8 M100,381.6c-0.9-6.1-2.5-15.3-4.2-24.1c-0.2-1-0.4-2-0.5-3
		c-1.4-2-2.8-4-4.3-5.9c-0.1,0.1-0.1,0.1-0.2,0.2c-0.6,0.8-1.1,1.8-1.5,2.8c-0.3,1.1-0.5,2.2-0.1,3.2c0.2,0.5,0.4,1,0.8,1.4
		c0.4,0.5,0.9,1,1.3,1.6c0.8,1.2,1.5,2.5,2,3.9c1,2.7,1.7,5.5,1.8,8.2c0,0.7,0,1.4-0.1,2c-0.1,0.4-0.1,0.7-0.3,1.1
		c-0.1,0.2-0.1,0.4-0.3,0.6l-0.2,0.3c0,0-0.1,0.1-0.1,0.1c-0.9,0.8-1.5,1.6-2.2,2.4c-1.1,1.4-2.1,2.6-2.7,3.6
		c0.1,0.1,0.2,0.2,0.3,0.2C93.3,382.1,97.4,382,100,381.6 M354.4,266.1l0-3.1c-2.2-8.7-1.6-15.4-0.8-20.5
		c1.8-11.7,4.5-44.7-12.8-62.2c-17.3-17.5-14.5-28.6-37.6-27.2c-23.1,1.4-48.7,5.3-64.3,10.9c-15.7,5.6-39,31.4-55.6,32.9
		c-16.6,1.4-36.6-10.9-36.4-14.4c0-0.7-0.2-1.1-0.4-1.4c1.2,0.7,4.7,2.1,13.8,4c19.8,4.1,39.8-4.8,39-10.8
		c-0.8-5.9-18.6-5.8-19.3-2.9c-0.8,2.9-25.3,8.6-30.9,3.6c-5.6-5,11.3-12.3,0.4-18.3c-10.9-5.9-23.9-4.9-31.1-2.4
		c-7.2,2.5-20,30.1-20.4,37.8c-0.3,5.4,0.5,41.6-0.7,68.4l0.7,11.1c0,0.5-0.5,47.3,0.2,56.8c0.4,5.2,2.5,16.8,4.6,27.9
		c1.7,9.2,3.5,18.8,4.3,25c1.7,12.8,13.6,69.2,24.8,97.1c8.4,21,19.6,34.6,29.5,46.7c3,3.6,5.8,7.1,8.4,10.5
		c7.8,10.5,24.6,28.7,49,33.4c21.5,4.1,45.9-12.4,49.5-16.3c0.8-0.9,2-2,3.7-3.5c9.6-8.6,32-28.7,50.2-68.2
		c21-45.4,27-78.9,31-101.1l0.3-1.6C357.2,357.4,356.1,278.7,354.4,266.1 M362.6,286.3c0.2,7.4,0.4,16,0.4,25.1
		c2.8-8,6.8-18.9,9.2-22.9c3.2-5.5,11.6-15.2,14.2-18.2c-0.6-3.1-1.2-5.9-1.8-8.1C375,264.8,366.2,279.1,362.6,286.3 M362.5,283.7
		c0,0.4,0,0.9,0,1.3C362.6,284.4,362.6,283.9,362.5,283.7 M361.5,288.5c-0.3,0.6-0.5,1.1-0.6,1.4
		C360.8,290.2,361.1,289.5,361.5,288.5 M372.9,377.4c-0.8-0.9-1.8-2-3.1-3.3c-0.8-0.7-1.5-1.5-2.4-2.2c-0.1,0-0.1-0.1-0.2-0.1
		l-0.3-0.3c-0.2-0.2-0.3-0.4-0.3-0.5c-0.2-0.4-0.3-0.7-0.4-1c-0.2-0.7-0.2-1.3-0.3-2c-0.2-2.7,0.2-5.6,0.9-8.3
		c0.4-1.4,0.9-2.7,1.6-4.1c0.3-0.7,0.8-1.2,1.1-1.8c0.3-0.5,0.6-1,0.7-1.5c0.2-1,0-2.2-0.5-3.2c-0.5-1-1.1-1.9-1.8-2.7
		c-0.1-0.1-0.1-0.1-0.2-0.2c-2,3.2-3.9,6.6-5.4,9.8c-0.4,9.9-1.1,18.1-2,23.3l-0.1,0.5c2.1,0.3,7.8,0.6,12.3-2.3
		C372.7,377.6,372.8,377.5,372.9,377.4 M376.3,353.7c-1.7-2.9-4.7-6.4-7.3-9.2c-0.2,0.3-0.4,0.7-0.6,1c0.1,0.1,0.3,0.2,0.4,0.3
		c0.8,0.8,1.5,1.7,2.2,2.8c0.6,1.1,1.1,2.5,0.9,4.1c-0.1,0.8-0.4,1.5-0.9,2.1c-0.3,0.6-0.8,1.2-1,1.7c-0.6,1.1-1,2.4-1.4,3.7
		c-0.7,2.6-1.1,5.3-1.1,7.8c0,1.2,0.1,2.6,0.7,3c0.9,0.8,1.7,1.7,2.4,2.5c1.2,1.4,2,2.7,2.7,3.6c2.3-2.7,2.5-11.1,2.7-16.4
		C376,358.1,376.1,355.7,376.3,353.7 M381.1,321.2c-1.2-6.8-5.5-20.3-7.7-27.1c-2.5,5.7-5.7,14.8-7.9,21
		c4.3,5.4,12.3,14.8,10.1,18.9c-0.8,1.5-2.6,4.2-4.6,7.5c2,2.1,4.5,4.9,6.5,7.7v0c1.1-2.2,3.1-8.3,3.4-24.2
		C380.9,323.6,381,322.4,381.1,321.2 M387.1,274.9c-3.3,3.9-8.8,10.5-11.4,14.8c1,3,4.4,13.4,6.8,22.2c0.5-2.7,1.2-5.5,1.8-8.3
		c1.1-4.5,2.1-9.2,3-14.3C388,284.9,387.7,279.8,387.1,274.9 M146.5,180.9C146.1,180.4,145.6,180.4,146.5,180.9 M137.4,284.9
		c8.2,4.2,63.4,25.2,67.5,27.1c4.1,2,4.5-4.7-1.5-8c-28.2-15.7-52.8-34-65-37.9c-12.2-3.9-19.9,1.8-29,22c-9.1,20.1-3,15.5,1.6,7.8
		C115.8,288.1,127.1,279.6,137.4,284.9 M269.6,309.9c-0.3,0.2-0.6,0.4-0.8,0.6l-1.7,1.4l-1.7,1.6c-1.1,1-2.1,2.1-3.1,3.2
		c-0.2,0.3-0.5,0.5-0.7,0.8c-3.4,3.2-7.4,7.1-11.3,11.2c-0.6,0.6-1.2,1.2-1.8,1.9c-0.2,0.2-0.3,0.2-0.6,0.8l0,0.1c0,0,0,0.2-0.1,0.3
		c0,0.2,0,0.3,0,0.4c0,0.2,0,0.3,0.1,0.5c0.1,0.5,0.3,0.9,0.4,1.4c0.7,1.6,1.5,3.1,2.2,4.5c1.6,2.8,3.1,5.4,4.4,7.5
		c2.7,4.4,4.5,7.2,4.5,7.2s-1.6-3-3.9-7.6c-1.1-2.3-2.5-5-3.8-7.8c-0.6-1.4-1.6-3-2.1-4.5c-0.1-0.4-0.5-0.8-0.5-1.1v0
		c0-0.1,0.4-0.2,0.5-0.2c0.5-0.6,1.3-1.2,1.9-1.7c5-4.6,10.2-9.1,14-12.4c3.4-2.9,5.8-5,6.3-5.5c0.1-0.1,0.1-0.1,0.1-0.1l-2.3-2.6
		l0,0C269.9,309.7,269.8,309.8,269.6,309.9 M316.2,454.8c1.4,5.7-1.1,19.1-1.2,20.9c-0.1,1.8-5.4,1.5-8,1.3
		c-2.6-0.1-11.2,0.3-11.2-0.9c0.1-1-6.4-3.5-11.4-4.3c-0.4,0.8-1,1.9-1.6,3.1c-1,1.8-2.2,4-3.8,6.5c-1.6,2.5-3.3,5.3-5.6,8.1
		c-2.2,2.9-4.9,5.7-8,8.5c-3.2,2.7-6.8,5.4-10.9,7.4c-1,0.6-2.1,0.9-3.2,1.4c-1.1,0.4-2.1,1-3.3,1.3c-1.2,0.3-2.3,0.7-3.5,1
		c-1.2,0.3-2.3,0.4-3.5,0.7c-4.8,0.9-9.6,1-14.5,0.8c-4.9-0.2-9.7-0.9-14.4-2.1c-4.7-1.2-9.1-2.9-13.2-5c-4.1-2-7.8-4.5-11-7.3
		l-1.1-1c-0.4-0.4-0.7-0.8-1.1-1.2c-0.7-0.8-1.4-1.6-2-2.4c-1.1-1.6-2.2-3.1-3.1-4.7c-1.9-3-3.5-5.9-4.9-8.5
		c-1.4-2.6-2.6-4.8-3.5-6.7c-1-1.8-1.7-3.3-2.2-4.3c0,0,0-0.1,0-0.1c-1.2,0-2.2,0.1-3,0.2c-8.5,1.3-18.7,9.2-22.6,8.5
		c-3.9-0.7-3.9-11.5-4.4-19.5c-0.4-8,9-12.3,11.7-13.9c2.7-1.6,13.5-11.8,13.5-11.8l14,0.5l4.2,1.9l7.1-2.4c0,0,8-1.7,15-0.9
		c-1.9-0.9-3.9-1.7-5.6-2.2c-6-1.6-13.2-8-14.7-18c-1.6-10.4,12.6-15.9,13.2-16.2l0.6,1.7c-0.1,0.1-13.5,5.3-12.1,14.3
		c1.4,9.3,8,15.1,13.4,16.6c0.3,0.1,0.7,0.2,1.1,0.3c0.3-0.6,0.7-1.4,1.5-2.2c0.9-0.8,1.8-2,3.7-2.6c0.5-0.1,1.2-0.2,1.9,0.2
		c0.2,0.1,0.3,0.2,0.5,0.3l0.2,0.2l0.5,0.4c0.7,0.6,1.4,1.2,2.1,1.8c1.5,1.3,3.1,2.6,4.8,4c0.8,0.7,1.7,1.2,2.6,1.9
		c0.4,0.3,0.9,0.6,1.4,0.9c0.5,0.3,1,0.6,1.5,0.9c2,1.1,4.2,2.2,6.4,2.9c2.1,0.8,4.3,0.8,5.1,0.1c0.1-0.1,0.2-0.2,0.3-0.3l0.6-0.7
		l1.2-1.4c0.8-1,1.6-2,2.4-3.1c1.6-2.1,3.4-4.1,5.5-5.9c1.1-0.9,2.3-1.7,3.7-2.2l1.1-0.3c0.4-0.1,0.8-0.1,1.2-0.1
		c0.6,0,1.1,0,1.6-0.1c1,0,2-0.2,3-0.4c0.5-0.1,1-0.2,1.5-0.3c0.3,0,0.6-0.1,0.9-0.1c0.4,0,0.6-0.1,1.5,0.1c0.3,0.1,0.9,0.6,1,1
		c0.2,0.5,0,0.7,0,1v0.1c0,0,0.1,0.5,0.1,0.3l0.1,0l0,0.1c0,0-0.1,0.4-0.2,0.5c-0.1,0.2-0.2,0.3-0.3,0.4c-0.1,0.1-0.2,0.2-0.2,0.2
		c-0.6,0.5-1,0.7-1.4,0.9c-0.9,0.4-1.7,0.7-2.4,1c-1.5,0.6-2.7,1.1-3.6,1.7c-0.9,0.6-1.4,1.2-1.3,1.8c0,0.1,0,0.2,0,0.3
		c0.6,0.3,1.3,0.5,2,0.6c0.6,0.1,1.9,0.1,3.4,0l-0.2-0.5c1-0.4,7.2-5.1,8.1-11c1-6.7,0-19-4.3-23.8c-2.7-3-5.3-3-6.6-2.7
		c-1.6,0.3-2.6,1.2-2.8,1.8l-1.7-0.6c0.5-1.4,2.1-2.5,4.1-2.9c1.7-0.3,5-0.4,8.3,3.2c5.1,5.7,5.6,19.2,4.7,25.2
		c-0.7,5-4.7,9-7.2,11.1c2.6-0.3,5.1-0.6,5.1-0.6l2.8-3.4c0,0,8.6,4,9.5,4.2c0.9,0.2,13.7,2.7,13.7,2.7s-2.5-2.8,1.9-1.7
		C295.3,432.7,314.8,449.1,316.2,454.8 M256.7,422.3C256.8,422.3,256.8,422.2,256.7,422.3c0.1-0.1,0.1-0.1,0.1-0.1
		C256.8,422.2,256.8,422.1,256.7,422.3C256.8,422.3,256.8,422.3,256.7,422.3 M256.5,422.5c0,0,0.1-0.1,0.1-0.1l0,0l-0.1-0.1V422.5
		L256.5,422.5z M214.6,435.3c3.7,2,13.7,7,18.2,6.5c5.6-0.6,14.9-13,14.9-13s0.9,0.5,2,1c0,0,0-0.1,0-0.1c-0.3-0.7,0.1-1.8,0.9-2.7
		c0.7-0.7,1.6-1.4,2.6-2.2c-0.4,0.1-0.9,0.2-1.4,0.3c-0.6,0.1-1.2,0.2-1.7,0.3l-0.5,0.1l-0.5,0.2c-0.7,0.4-1.5,0.9-2.3,1.7
		c-1.6,1.5-3,3.4-4.5,5.4c-0.8,1-1.5,2.1-2.3,3.1l-1.3,1.6l-0.7,0.8c-0.4,0.4-0.7,0.7-1.1,1c-1.7,1.3-3.7,1.6-5.4,1.5
		c-1.7-0.1-3.2-0.5-4.5-0.9c-2.7-0.9-5-2.4-7.2-3.7c-0.5-0.4-1-0.7-1.6-1.1c-0.5-0.3-1-0.7-1.5-1.1c-0.9-0.9-2-1.7-2.7-2.5
		c-0.8-0.8-1.5-1.7-2.3-2.5c-0.7-0.8-1.3-1.6-2-2.4c-0.6-0.8-1.2-1.5-1.8-2.2l-0.4-0.5l-0.2-0.3c0,0,0,0,0,0c0-0.1-0.2-0.2-0.5-0.1
		c-1.2,0.1-2.5,0.8-3.4,1.4c-0.8,0.6-1.5,1.1-1.8,1.5C206.3,428.1,212.8,431.5,214.6,435.3 M188.2,468c3.3,3.5,9.5,9.6,16.4,13.8
		c9.9,6.1,18.1,5.9,30.5,4.8c3.3-0.3,6.9-1.3,10.5-2.7l1-8.6l0.7,7.9c6.4-2.9,12.5-7.3,16.6-12.1c-1.9,0-3.8-0.1-5.8-0.1l-1,3.1
		l-0.2-3.1c-13.7-0.3-29-0.6-35.3-0.8c-2.4-0.1-5.9-0.3-9.8-0.6l-1.4,8.4l-0.2-8.6c-3-0.2-6.2-0.4-9.6-0.7l-0.8,5.1l-0.2-5.2
		C195.8,468.5,191.9,468.2,188.2,468 M284.1,471.7c-0.6-0.1-1.3-0.2-1.8-0.2c-1.6-0.1-7-0.2-14-0.4c-6.8,9.5-21,17.9-32.8,18.9
		c-5.2,0.5-9.8,0.8-14.2,0.5c-6.3-0.4-12.1-1.9-18.5-5.8c-9.8-6-18-15.2-19.5-17.1c-5.2-0.3-9.8-0.4-13.1-0.3
		c0.6,0.9,1.5,2.3,2.6,4.1c1.1,1.8,2.5,3.9,4,6.3c1.6,2.4,3.4,5.1,5.5,8c1,1.5,2.2,2.9,3.3,4.4c0.6,0.8,1.3,1.4,1.9,2.1
		c0.3,0.3,0.6,0.7,1,1l1.2,1c3.1,2.4,6.8,4.6,10.7,6.5c3.9,1.9,8.2,3.3,12.6,4.5c4.4,1.1,9.1,1.7,13.7,1.9c4.6,0.2,9.4,0.1,13.8-0.7
		c1.1-0.2,2.4-0.3,3.4-0.6c1.1-0.3,2.1-0.6,3.2-0.9c1.1-0.2,2.1-0.7,3.1-1.1c1-0.4,2.1-0.7,3-1.3c1-0.5,1.9-1,2.9-1.5
		c1-0.5,1.8-1.1,2.7-1.6c1.8-1,3.4-2.4,5-3.5c3.1-2.6,5.9-5.2,8.2-7.8c2.4-2.6,4.3-5.2,6.1-7.5c1.7-2.3,3.1-4.4,4.3-6.2
		C282.9,473.4,283.5,472.5,284.1,471.7 M151.4,307.4C151.6,307.4,151.5,307.4,151.4,307.4L151.4,307.4L151.4,307.4z M263.4,330.3
		l-7.7-3.2c4.6,3.1,9.4,5.9,14.5,8.4c1.3,0.6,2.5,1.2,3.9,1.7l1,0.4c0.5,0.2,0.7,0.2,1.1,0.3c0.6,0.2,1.5,0.3,2.2,0.5
		c1.5,0.2,2.9,0.3,4.4,0.3c1.4,0,2.9-0.1,4.3-0.2c1.4-0.1,2.9-0.3,4.3-0.6c1.4-0.3,2.8-0.6,4.2-1c1.4-0.4,2.8-0.8,4.1-1.4
		c0.7-0.2,1.4-0.6,2-0.9c0.7-0.3,1.3-0.6,2-1c1.3-0.7,2.6-1.5,3.8-2.4l0.9-0.7l0.2-0.2l0.2-0.2l0.4-0.3c0.5-0.5,1-0.9,1.6-1.4
		c1.1-1,2.1-2.1,3.1-3.3c0.5-0.6,1-1.3,1.4-2.2c0.1-0.2,0.2-0.5,0.3-0.8c0.1-0.4,0.2-0.7,0.2-1.2c0.1-0.7-0.1-2.4-1.7-3.3
		c-2.4-1.5-4.7-3.1-7.1-4.8c-2.4-1.7-4.7-3.4-7.3-5c-1.3-0.8-2.7-1.6-4.2-2.2c-0.7-0.3-1.5-0.6-2.3-0.9c-0.4-0.1-0.8-0.3-1.2-0.3
		l-0.6-0.2l-0.3-0.1l-0.3-0.1l-0.1-0.1l-0.5-0.2l-0.7,0c-0.5,0-0.9,0.1-1.3,0.2c-0.8,0-1.6,0.2-2.4,0.3c-1.5,0.2-3,0.4-4.5,0.8
		c-3,0.7-5.9,1.6-8.7,3c-1,0.5-1.9,1-2.9,1.7l2.3,2.6c0,0,0,0-0.1,0.1c0.7-0.4,1.4-0.7,2.2-1c2.5-1,5.3-1.7,8-2.1
		c1.4-0.2,2.8-0.4,4.1-0.5c0.7-0.1,1.4-0.1,2-0.1c0.3,0,0.7,0,0.9,0l0.4,0l0.5,0.1l0.8,0.2c0.3,0.1,0.6,0.2,0.9,0.3
		c0.6,0.2,1.2,0.5,1.8,0.8c1.2,0.6,2.3,1.3,3.5,2c4.3,2.8,8.5,6.2,13.1,9.2c-0.1,0.2-0.2,0.4-0.4,0.5c-0.7,0.9-1.6,1.9-2.5,2.8
		c-0.4,0.4-1,0.9-1.5,1.4l-0.4,0.4l-0.1,0.1c0,0,0,0-0.1,0l-0.2,0.1l-0.7,0.6c-0.9,0.8-2,1.5-3.1,2.1c-0.5,0.3-1.1,0.6-1.7,0.9
		c-0.6,0.3-1.1,0.6-1.8,0.8c-1.2,0.5-2.4,1-3.7,1.4c-1.3,0.4-2.5,0.8-3.8,1.1c-1.3,0.3-2.6,0.6-3.9,0.8c-2.6,0.4-5.3,0.7-7.9,0.6
		c-0.6-0.1-1.2,0-1.9-0.2c-0.3-0.1-0.8-0.1-0.9-0.2l-1-0.2c-1.3-0.4-2.6-0.8-3.9-1.2C268.5,332.4,266,331.3,263.4,330.3
		 M318.5,310.5c0.2,0.5,0.2,0.6,0.2,0.8l-3.5,0.7l-0.1-0.3c0-0.1,0,0,0-0.1c0,0-0.1-0.1-0.1-0.3c-0.1-0.3-0.3-0.5-0.5-0.8
		c-0.4-0.6-1-1.1-1.5-1.7c-1.1-1.1-2.3-2.1-3.6-3c-2.6-1.9-5.4-3.5-8.3-4.8c-2.9-1.3-6-2.3-9.1-2.6c-1.6-0.1-3.1-0.1-4.6,0.2
		c-1.6,0.3-3.1,0.7-4.7,1.2c-6.2,2-12.2,4.9-18.1,7.8c-2.9,1.5-5.9,3.1-8.7,4.7c-1.4,0.8-2.9,1.7-4.3,2.5c-0.7,0.4-1.4,0.9-2.1,1.3
		l-1,0.7l-0.5,0.4l-0.2,0.2c-0.1,0-0.1,0.2,0,0l-0.2,0.3c-0.7,0.7-1.3,1.6-1.9,2.4c-0.6,0.9-1.1,1.8-1.5,2.7
		c-0.5,0.9-0.8,1.9-1.1,2.9c-0.2,1-0.2,2-0.1,3c0.3,2.1,0.9,4.2,1.2,6.3c0.4,2.1,0.5,4.3,0.3,6.5c-0.1,1.1-0.2,2.2-0.5,3.2l-0.7,3.2
		c-0.2,0.8-0.3,1.5-0.4,2.3c0.1,0.3,0.3,0.7,0.4,1.3c0.1,1.3,0,3.1-0.3,5.3c-0.3,2.1-0.7,4.6-1.2,7.3c-0.2,1.3-0.4,2.7-0.5,4.1
		c-0.2,1.4-0.3,2.8-0.3,4.2c0,0.7-0.1,1.4-0.1,2.1c0,0.7,0,1.4,0.1,2.1c0,1.4,0.2,2.8,0.3,4.1c0.2,1.3,0.4,2.6,0.6,3.8
		c0.3,1.2,0.5,2.3,0.8,3.4c0.5,2.1,1,3.8,1.3,5.1c0.3,1.2,0.5,1.9,0.5,1.9s-0.3-0.7-0.8-1.8c-0.5-1.2-1.2-2.8-1.9-4.9
		c-0.4-1-0.7-2.2-1.1-3.4c-0.4-1.2-0.6-2.5-0.9-3.9c-0.1-1.4-0.5-2.8-0.5-4.2c0-0.7-0.1-1.5-0.1-2.2c0-0.7,0-1.5,0.1-2.2
		c0-1.5,0.2-2.9,0.4-4.3c0.2-1.4,0.4-2.8,0.7-4.2c0.3-1.6,0.7-3.1,1-4.4c0.2-1.7,0.4-3.5,0.6-5.2c0.1-1.1,0.3-2.1,0.4-3.2
		c0.1-0.4,0.1-0.9,0.2-1.3c0,0,0,0,0,0s0,0,0,0c0.1-0.6,0.2-1.3,0.3-1.9l0.6-3.2c0.2-1,0.3-2.1,0.4-3.2c0.1-2.1-0.1-4.2-0.5-6.3
		c-0.4-2.1-1-4.1-1.4-6.3c-0.2-1.1-0.2-2.3,0-3.4c0.3-1.1,0.6-2.2,1.1-3.2c0.4-1,1-2,1.5-2.9c0.6-0.9,1.2-1.8,1.9-2.6
		c0.1-0.2,0.2-0.2,0.3-0.3c0.1-0.1,0.2-0.2,0.3-0.3l0.5-0.4l1-0.8c0.7-0.5,1.4-1,2.1-1.4c1.4-0.9,2.8-1.8,4.2-2.7
		c2.8-1.7,5.7-3.4,8.7-5c5.9-3.2,11.8-6.2,18.2-8.4c1.6-0.6,3.2-1.1,4.9-1.4c1.7-0.4,3.5-0.5,5.3-0.4c3.5,0.2,6.9,1.2,10.1,2.5
		c3.2,1.3,6.2,2.9,9,4.9c1.4,1,2.8,2,4.1,3.2c0.6,0.6,1.3,1.2,1.9,2c0.3,0.4,0.6,0.8,0.9,1.2C318.2,309.9,318.4,310,318.5,310.5
		 M243.1,350.6c0,0.2-0.1,0.4-0.1,0.5c-0.2,1.1-0.4,2.1-0.5,3.2c-0.2,1.2-0.3,2.3-0.5,3.5c0.1-0.4,0.2-0.7,0.3-1.1
		c0.2-1,0.5-2,0.7-2.9c0.2-0.9,0.3-1.6,0.3-2.2C243.2,351.2,243.1,350.9,243.1,350.6 M273.2,320.7c0.4-6.4,5.8-11.3,12.2-10.9
		c6.4,0.4,11.2,5.8,10.9,12.2c-0.4,6.4-5.8,11.2-12.2,10.9C277.8,332.6,272.9,327.1,273.2,320.7 M286.4,317.3c-0.1,1.1,0.7,2,1.8,2
		c1.1,0.1,2-0.7,2-1.8c0.1-1.1-0.8-2-1.8-2C287.3,315.4,286.4,316.2,286.4,317.3 M307,334.1c-1.3,1-2.8,2.1-4.2,2.9
		c-0.7,0.4-1.4,0.6-2.4,1l-1.4,0.5l-1.3,0.4c-1.8,0.5-3.7,0.9-5.6,1.2c-1.9,0.3-3.8,0.5-5.7,0.5c-1.9,0.1-3.8,0-5.6-0.2
		c-1.8-0.3-3.5-0.5-5.1-0.9c-1.6-0.4-3.1-0.8-4.5-1.4c-1.3-0.6-2.6-1.2-3.7-1.7c-1.1-0.5-2.2-0.9-3-1.2c-0.8-0.3-1.5-0.4-2-0.6
		c-0.5-0.1-0.7-0.2-0.7-0.2s0.9,0.5,2.4,1.4c0.7,0.5,1.6,1,2.6,1.7c1,0.7,2.1,1.5,3.5,2.3c2.7,1.6,6.2,2.9,10,3.6
		c1.9,0.3,3.9,0.6,6,0.6c2.1,0,4.1-0.1,6.2-0.4c2.1-0.3,4.1-0.8,6.1-1.4c1-0.3,2-0.6,2.8-1c0.8-0.3,2-0.8,2.8-1.4
		c1.7-1.1,3.1-2.4,4.4-3.6c1.3-1.2,2.4-2.5,3.4-3.6c4-4.6,6-8.1,6-8.1s-3,2.7-7.5,6.6C309.6,332,308.4,333,307,334.1 M151.2,319.1
		c0.4-6.4,5.8-11.3,12.2-10.9c6.4,0.4,11.3,5.8,10.9,12.2c-0.4,6.4-5.8,11.3-12.2,10.9C155.7,331,150.8,325.5,151.2,319.1
		 M164.3,315.7c-0.1,1.1,0.8,2,1.8,2c1.1,0.1,2-0.8,2-1.8c0.1-1.1-0.7-2-1.8-2C165.3,313.8,164.4,314.6,164.3,315.7 M309.6,262.9
		c-4.4,0.3-57.5,32.8-64.6,37.1c-12.3,7.5,1.3,11.3,3,9.6c1.7-1.7,58.1-25.3,63.9-28.7c5.8-3.4,16.5,5.5,20.5,10.3
		c4,4.8,11.3,16,5.2-1.4C330.9,270.4,314.1,262.6,309.6,262.9 M141.5,336c-1.5-1.6-2.6-3.2-3.6-4.7c-1-1.6-1.9-3.1-2.7-4.5
		c-1.6-2.8-2.8-5.2-3.6-6.9c-0.3-0.6-0.5-1.1-0.7-1.5c-0.4,0.2-0.7,0.4-1.1,0.5c0.4-0.2,0.7-0.5,1-0.7c-0.3-0.6-0.5-1-0.5-1l1.9-0.8
		l-0.6-0.1c0.2-0.9,0.2-1.7,0.5-2.7c0.3-1,0.6-2.1,1.1-3l0.7-1.3c0.2-0.4,0.6-0.8,0.9-1.2c0.6-0.8,1.2-1.6,1.9-2.3
		c1.4-1.4,2.9-2.6,4.5-3.6c0.8-0.5,1.7-1,2.5-1.4c0.9-0.4,1.7-0.8,2.6-1.2l2.7-1c0.9-0.2,1.8-0.5,2.7-0.7c1.8-0.4,3.7-0.7,5.6-0.8
		c1.9-0.1,3.8-0.1,5.7,0.2c0.5,0.1,0.9,0.1,1.5,0.2c0.4,0.1,0.9,0.2,1.4,0.4c1,0.3,1.8,0.6,2.7,1c3.4,1.5,6.6,3.4,9.7,5.4
		c3.1,2,6,4.1,8.9,6.4c2.9,2.2,5.7,4.5,8.5,6.8c1.4,1.2,2.8,2.4,4.1,3.6c0.7,0.6,1.3,1.2,2,1.9c0.3,0.3,0.7,0.7,1,1l0.5,0.5
		c0.1,0.2,0.3,0.3,0.4,0.6c0.6,0.9,1.1,1.8,1.6,2.8c0.5,1,0.9,2,1.2,3c0.3,1,0.3,2,0.5,3.2l-0.2,0.8l-0.1,0.9c0,0.6,0.1,1.1,0,1.6
		c-0.5,2.1-1.2,4-1.9,6c-0.6,2-1.1,4-1.2,6c-0.1,1-0.1,2.1-0.1,3.1l0.1,3.1c0.1,1,0.1,2.1,0,3.1c-0.1,1-0.1,2.1-0.2,3.1
		c-0.4,4.2-1.1,8.3-2.2,12.3c1-4.1,1.6-8.2,1.9-12.3c0.1-1,0.1-2.1,0.1-3.1c0-1,0-2.1-0.1-3.1l-0.2-3.1c-0.1-1.1-0.1-2.1,0-3.2
		c0.1-2.1,0.6-4.2,1.2-6.2c0.6-2,1.4-4,1.8-5.9c0.1-0.5,0.2-1,0.2-1.5l0-0.7l-0.1-0.8c-0.2-0.9-0.4-2-0.8-2.9
		c-0.7-1.9-1.6-3.8-2.8-5.4l-0.1-0.3c0,0.2-0.1-0.1-0.2-0.2l-0.4-0.5l-1-0.9c-0.7-0.6-1.3-1.2-2-1.8c-1.4-1.2-2.8-2.3-4.2-3.5
		c-2.8-2.3-5.7-4.5-8.6-6.6c-2.9-2.1-5.9-4.1-9-6c-3.1-1.9-6.2-3.7-9.5-5c-0.8-0.3-1.7-0.6-2.4-0.8c-0.4-0.1-0.8-0.2-1.3-0.3
		c-0.3-0.1-0.8-0.1-1.2-0.2c-1.7-0.2-3.4-0.2-5.2,0c-1.7,0.1-3.4,0.5-5.1,0.9c-0.8,0.2-1.7,0.5-2.5,0.8l-2.4,0.9l-2.3,1.1
		c-0.7,0.5-1.5,0.9-2.2,1.3c-1.4,1-2.7,2-3.9,3.3c-0.6,0.6-1.1,1.2-1.5,1.9c-0.2,0.3-0.5,0.7-0.7,1l-0.5,1.1
		c-0.4,0.7-0.5,1.4-0.8,2.1c0,0.1,0,0.2-0.1,0.2l1.6-1.3c1.2-1,2.4-2,3.7-2.9c1.2-1,2.5-1.9,3.8-2.8c0.7-0.4,1.4-0.9,2.1-1.3
		l1.1-0.6l1.1-0.5l1.1-0.5l0.3-0.1l0.1-0.1l0,0l0.2-0.1l0.1,0l0.6-0.2c0.8-0.2,1.7-0.4,2.5-0.6c1.6-0.2,3.3-0.3,4.9-0.3
		c1.6,0,3.2,0.1,4.9,0.2c1.6,0.2,3.2,0.3,4.8,0.7c0.8,0.2,1.6,0.3,2.5,0.6c0.9,0.3,1.8,0.5,2.5,0.8l0.5,0.2l0.3,0.1l0.2,0.1l0,0
		l0.1,0l0.1,0.1l1.1,0.7c0.7,0.4,1.4,0.9,2.1,1.5c1.4,1,2.5,2.1,3.7,3.3c1.1,1.2,2.2,2.3,3.3,3.5c1.1,1.2,2.1,2.4,3.1,3.6
		c1.9,2.3,3.9,4.6,5.7,7c0.1,0.1,0.2,0.2,0.3,0.3c0.3,0.3,0.5,0.6,0.7,1c0.2,0.4,0.2,0.9,0.2,1.3c0,0.4-0.1,0.8-0.2,1.1
		c-0.1,0.2-0.2,0.5-0.3,0.7c0.5,0.7,1,1.5,1.5,2.3c1,1.5,1.9,2.9,2.9,4.6c0.1,0.2,0.3,0.5,0.4,0.7l0,0c0,0.1-0.1-0.2,0.1,0.2l0,0
		l0,0.2c0,0.2,0,0.5-0.1,0.6c-0.1,0.2-0.1,0.3-0.2,0.5c-0.3,0.5-0.5,0.9-0.8,1.3c-0.5,0.8-1.1,1.5-1.7,2.3c-2.4,2.9-4.8,5.6-7.2,8.2
		c-2.4,2.5-4.6,4.9-6.4,6.9c-3.8,4-6.4,6.7-6.4,6.7s2.4-2.8,6-7.1c1.8-2.1,3.8-4.6,6-7.3c2.2-2.7,4.5-5.6,6.6-8.6
		c0.5-0.7,1-1.5,1.5-2.2c0.2-0.4,0.4-0.7,0.6-1.1l-0.2-0.3c-1-1.4-2.1-2.9-3.1-4.3c-0.5-0.6-1-1.3-1.4-1.9c-0.6,0.4-1.1,0.6-1.6,0.9
		c-1.5,0.7-2.9,1.1-4.3,1.6c-1.3,0.4-2.8,0.9-4.3,1.2c-1.5,0.3-2.9,0.5-4.4,0.7c-5.8,0.7-11.6,0.9-17.5,0.5
		c-1.5-0.1-2.9-0.2-4.4-0.5c-1.5-0.2-2.9-0.5-4.4-0.9c-1.4-0.3-3.3-1.1-4.3-1.8l-0.1,0l-0.1-0.1l0,0l-0.1-0.1l-0.2-0.2l-0.4-0.4
		l-0.9-0.7c-0.6-0.5-1.1-1-1.6-1.6c-1-1.1-1.9-2.2-2.8-3.3c-0.9-1.1-1.8-2.3-2.6-3.4c-1.1-1.6-2.2-3.2-3.2-4.8
		c0.7,1.7,1.7,3.9,3,6.5c0.7,1.4,1.5,2.9,2.4,4.5c0.9,1.5,1.9,3.1,3.1,4.5l0.9,1l0.5,0.4c0.1,0.1,0.2,0.1,0.2,0.2l0.3,0.2
		c0.9,0.4,1.8,1,2.7,1.4c0.9,0.4,1.8,0.8,2.8,1.1c1,0.4,2,0.7,3,0.9c2,0.5,4.1,0.9,6.1,1.1c2,0.2,4.1,0.2,6,0.1
		c3.9-0.2,7.6-0.9,10.6-1.9c1.5-0.5,2.8-1.1,4-1.5c1.2-0.5,2.3-0.8,3.2-1.1c0.9-0.3,1.6-0.4,2.1-0.6c0.5-0.1,0.7-0.2,0.7-0.2
		s-0.3,0.1-0.7,0.2c-0.5,0.2-1.2,0.3-2,0.7c-0.9,0.3-1.9,0.7-3.1,1.3c-1.2,0.5-2.5,1.2-4,1.8c-3,1.2-6.7,2.1-10.7,2.5
		c-2,0.2-4.1,0.3-6.2,0.2c-2.1-0.1-4.3-0.3-6.4-0.8c-1.1-0.2-2.1-0.5-3.2-0.8c-1.1-0.3-2.1-0.7-3.1-1.1c-1.1-0.4-1.9-0.9-2.9-1.3
		l-0.3-0.2l-0.4-0.3l-0.8-0.5C142.3,336.8,141.9,336.4,141.5,336 M189.9,329.5C189.9,329.5,189.9,329.6,189.9,329.5
		c0.2,0.2,0.2,0.3,0.6,0.5L189.9,329.5z M172,310.2C172.1,310.3,172.1,310.3,172,310.2L172,310.2z M134.3,317.6
		c1.6,1.8,3.2,3.5,4.9,5.3c1,1,2,2.1,3,3c1,1,2,1.9,3.1,2.8c0.5,0.5,1,0.9,1.6,1.3l1.5,1.1c0.6,0.3,1.3,0.7,1.8,0.7
		c0.5,0.2,1.2,0.3,1.8,0.4c1.3,0.2,2.7,0.4,4,0.5c1.4,0.1,2.8,0.1,4.1,0.1c2.8,0,5.6-0.2,8.3-0.4c1.4-0.1,2.8-0.2,4.2-0.4
		c1.4-0.2,2.8-0.4,4.1-0.6c1.4-0.2,2.7-0.5,4-0.8c1.3-0.3,2.5-0.7,3.9-1.1c1.2-0.4,2.5-0.9,3.6-1.4c0.1,0,0.1-0.1,0.2-0.1
		c-1.6-2-3.2-4-4.8-5.9c-1-1.2-1.9-2.4-2.9-3.5c-1-1.2-2-2.2-3-3.4c-1.1-1-2.1-2.1-3.2-3c-0.5-0.5-1.1-0.9-1.7-1.3l-0.9-0.6
		l-0.1-0.1l-0.1,0l-0.1-0.1l-0.5-0.2c-0.7-0.4-1.3-0.5-1.9-0.7c-0.6-0.2-1.3-0.4-2-0.6c-1.4-0.4-2.9-0.6-4.4-0.9
		c-1.5-0.2-3-0.5-4.4-0.5c-1.5-0.2-2.9-0.1-4.4-0.1c-0.7,0-1.4,0.2-2.1,0.3l-0.5,0.1c0,0,0,0,0,0l0,0l-0.1,0l-0.3,0.1l-1.1,0.4
		l-1.1,0.4l-1,0.5l-2,0.9c-1.3,0.8-2.7,1.4-4,2.2l-4,2.4l-2.7,1.6c0,0.3-0.1,0.6-0.1,0.8l-1-0.1l-0.2,0.1
		C134.1,317,134.2,317.3,134.3,317.6 M239.7,530.4c-3.3-0.9-7.7-1.5-12.1-1.8c-4.4-0.2-8.9-0.1-12.2,0.4c-1.7,0.2-3.1,0.5-4.1,0.8
		c-1,0.2-1.5,0.4-1.5,0.4s0.5,0.3,1.5,0.6c0.9,0.4,2.3,0.8,3.9,1.2c3.3,0.9,7.7,1.6,12.1,1.8c4.4,0.3,8.8,0.1,12.2-0.4
		c1.7-0.2,3.1-0.5,4.1-0.8c1-0.2,1.5-0.4,1.5-0.4s-0.5-0.3-1.5-0.6C242.7,531.3,241.4,530.8,239.7,530.4"/>
</g>
</svg>
